<svg width="25" height="25" viewBox="0 0 25 25" fill="none" xmlns="http://www.w3.org/2000/svg">
<path fill-rule="evenodd" clip-rule="evenodd" d="M8.17467 5.65894C7.59094 5.65894 7.22071 6.08628 7.22071 6.49234V18.6323L11.6977 16.4642C11.9331 16.3501 12.2079 16.3503 12.4433 16.4646L16.905 18.6307V6.49234C16.905 6.08628 16.5348 5.65894 15.951 5.65894H8.17467ZM5.51172 6.49234C5.51172 5.03328 6.76006 3.94995 8.17467 3.94995H15.951C17.3657 3.94995 18.614 5.03328 18.614 6.49234V19.9955C18.614 20.2899 18.4625 20.5635 18.213 20.7197C17.9635 20.876 17.6511 20.8927 17.3863 20.7642L12.0696 18.1829L6.73865 20.7646C6.47384 20.8928 6.16169 20.8758 5.91239 20.7195C5.66309 20.5632 5.51172 20.2897 5.51172 19.9955V6.49234Z" fill="#9DA0AF"/>
</svg>
