<svg width="25" height="25" viewBox="0 0 25 25" fill="none" xmlns="http://www.w3.org/2000/svg">
<path fill-rule="evenodd" clip-rule="evenodd" d="M8.5374 7.06593V6.07157C8.5374 4.62337 9.71069 3.45007 11.1589 3.45007H17.4866C18.9348 3.45007 20.1081 4.62337 20.1081 6.07157V16.054C20.1081 17.3584 18.7129 18.185 17.5687 17.5623L15.5883 16.4819V19.6274C15.5883 20.9235 14.2048 21.765 13.0534 21.1384C12.317 20.737 11.4066 20.2404 10.6808 19.8444L9.80283 19.3654L8.92502 19.8441C8.19926 20.24 7.2895 20.7362 6.55332 21.138L6.55249 21.1384C5.40112 21.765 4.01758 20.9235 4.01758 19.6274V9.68743C4.01758 8.23896 5.19204 7.06593 6.63907 7.06593H8.5374ZM10.1645 6.07157C10.1645 5.52201 10.6093 5.07721 11.1589 5.07721H17.4866C18.0362 5.07721 18.481 5.52201 18.481 6.07157V16.054C18.481 16.0772 18.4756 16.0903 18.4703 16.0993C18.4638 16.1103 18.4527 16.1222 18.4369 16.1316C18.4211 16.141 18.4052 16.1451 18.3922 16.1456C18.3815 16.1459 18.367 16.1443 18.3465 16.1331L15.5883 14.6283V9.68743C15.5883 8.23922 14.415 7.06593 12.9668 7.06593H10.1645V6.07157ZM13.9612 15.1263V19.6274C13.9612 19.7033 13.8862 19.7387 13.8317 19.7095C13.0955 19.3082 12.1858 18.812 11.46 18.416L10.1927 17.7246C9.94986 17.5921 9.65594 17.5922 9.41308 17.7246L8.14594 18.4156C7.42035 18.8114 6.51072 19.3075 5.77445 19.7093C5.71995 19.7388 5.64471 19.7034 5.64471 19.6274V9.68743C5.64471 9.13813 6.09015 8.69307 6.63907 8.69307H12.9668C13.5164 8.69307 13.9612 9.13787 13.9612 9.68743V15.0947C13.961 15.1052 13.961 15.1158 13.9612 15.1263Z" fill="#9DA0AF"/>
</svg>
