<svg width="24" height="24" viewBox="0 0 24 24" fill="none" xmlns="http://www.w3.org/2000/svg">
<path d="M8.00361 3.10754C4.74041 3.10754 2.09961 5.76083 2.09961 9.03226C2.09961 12.4781 3.70115 15.1931 5.59817 17.1343C7.48268 19.0628 9.7131 20.2873 11.1473 20.7772C11.4252 20.8743 11.7344 20.9075 11.9996 20.9075C12.2648 20.9075 12.574 20.8743 12.8519 20.7772C14.2861 20.2873 16.5165 19.0628 18.401 17.1343C20.2981 15.1931 21.8996 12.4781 21.8996 9.03226C21.8996 5.76083 19.2588 3.10754 15.9956 3.10754C14.4576 3.10754 13.0502 3.7043 12 4.67852C10.9523 3.70465 9.5494 3.10754 8.00361 3.10754Z" fill="#9DA0AF"/>
</svg>
