<svg width="24" height="24" viewBox="0 0 24 24" fill="none" xmlns="http://www.w3.org/2000/svg">
<path d="M21.9579 12.2456C21.9579 11.5134 21.892 10.8128 21.7695 10.1392H12.293V13.9988L17.7507 14C17.5293 15.2842 16.817 16.3789 15.7254 17.1087V19.6128H18.9741C20.8711 17.869 21.9579 15.2912 21.9579 12.2456Z" fill="#4285F4"/>
<path d="M15.7265 17.1088C14.8222 17.7146 13.6576 18.069 12.2953 18.069C9.66354 18.069 7.43099 16.3076 6.63146 13.9333H3.28027V16.5158C4.94056 19.7883 8.35297 22.0339 12.2953 22.0339C15.02 22.0339 17.3091 21.1439 18.9753 19.6117L15.7265 17.1088Z" fill="#34A853"/>
<path d="M6.31633 12.0176C6.31633 11.3509 6.42819 10.7065 6.6319 10.1006V7.51819H3.28072C2.59423 8.8714 2.20801 10.3989 2.20801 12.0176C2.20801 13.6363 2.59541 15.1638 3.28072 16.517L6.6319 13.9346C6.42819 13.3287 6.31633 12.6843 6.31633 12.0176Z" fill="#FABB05"/>
<path d="M12.2953 5.96491C13.7825 5.96491 15.1142 6.47368 16.1657 7.46783L19.0447 4.61052C17.2961 2.99298 15.0165 2 12.2953 2C8.35415 2 4.94056 4.24561 3.28027 7.51812L6.63146 10.1006C7.43099 7.72631 9.66354 5.96491 12.2953 5.96491Z" fill="#E94235"/>
</svg>
