<svg width="24" height="24" viewBox="0 0 24 24" fill="none" xmlns="http://www.w3.org/2000/svg">
<path d="M8.59925 4.87115H14.8205C16.2012 4.87115 17.3205 5.99044 17.3205 7.37115V17.061L17.5062 17.1623C18.6504 17.785 20.0456 16.9584 20.0456 15.654V5.67155C20.0456 4.22334 18.8723 3.05005 17.4241 3.05005H11.0964C9.92735 3.05005 8.93744 3.81461 8.59925 4.87115Z" fill="#9DA0AF"/>
<path d="M15.5205 19.3657V9.17115C15.5205 7.79044 14.4012 6.67115 13.0205 6.67115H7.14355V6.66591H6.57657C5.12954 6.66591 3.95508 7.83894 3.95508 9.2874V19.2274C3.95508 21.0987 4.90763 21.6019 6.49082 20.7379C7.227 20.3362 8.13676 19.8399 8.86252 19.4441L9.74033 18.9654L10.6183 19.4444C11.3441 19.8404 12.2545 20.337 12.9909 20.7384C14.6559 21.646 15.5205 21.4307 15.5205 19.3657Z" fill="#9DA0AF"/>
</svg>
