<svg width="24" height="24" viewBox="0 0 24 24" fill="none" xmlns="http://www.w3.org/2000/svg">
<path d="M6.74645 8.85893C5.96199 7.24389 7.1496 3.86245 8.90566 3.82031C10.6619 3.86245 11.8493 7.24389 11.0653 8.85912C10.8363 9.33062 10.5102 9.67942 9.87666 10.1045C9.65514 10.2533 9.40453 10.511 9.40413 11.0576C9.45151 14.737 9.89652 19.0198 9.89652 19.0198C9.89652 19.6468 9.45583 20.1562 8.90586 20.1772C8.35569 20.1564 7.9152 19.6468 7.9152 19.0198C7.9152 19.0198 8.36021 14.737 8.40758 11.0574C8.40719 10.5108 8.15677 10.2531 7.93505 10.1043C7.30154 9.67922 6.97545 9.33043 6.74645 8.85893Z" fill="#9DA0AF"/>
<path d="M17.4821 5.51642C17.4895 6.30401 17.4998 7.38552 17.4998 8.65824C17.4998 9.19001 16.9638 9.64629 16.4061 9.89619L16.4065 9.89814C16.0443 10.0522 15.9338 10.3396 15.9334 10.896C15.9749 14.6406 16.2911 18.9996 16.2911 18.9996C16.2911 19.6513 15.9177 20.1796 15.261 20.1796C14.6043 20.1796 14.2308 19.6513 14.2308 18.9996C14.2308 18.9996 14.5471 14.6406 14.5885 10.896C14.5882 10.3398 14.4777 10.0524 14.1154 9.89814L14.119 9.89755C13.5598 9.64785 13.0229 9.19099 13.0229 8.65824C13.0229 7.38552 13.0332 6.30401 13.0407 5.51642C13.0449 5.06545 13.0483 4.71085 13.0483 4.47191C13.0483 4.15979 13.4318 4.01192 13.6205 4.01192C13.8379 4.01192 14.1321 4.18066 14.1321 4.4602C14.1321 5.00928 14.1447 6.11768 14.1558 7.09301C14.1585 7.33152 14.1611 7.56207 14.1634 7.77454C14.1675 8.15474 14.2477 8.27062 14.4993 8.27062C14.7049 8.27062 14.804 8.16996 14.804 7.74352V4.39953C14.804 4.12292 15.04 3.98968 15.2614 4.0086C15.4827 3.98968 15.7188 4.12292 15.7188 4.39953V7.74352C15.7188 8.16976 15.818 8.27062 16.0234 8.27062C16.2752 8.27062 16.3552 8.15474 16.3593 7.77454C16.3617 7.56214 16.3643 7.33166 16.367 7.09322C16.378 6.11784 16.3906 5.00932 16.3906 4.4602C16.3906 4.18066 16.6849 4.01192 16.9022 4.01192C17.0911 4.01192 17.4744 4.15959 17.4744 4.47191C17.4744 4.71085 17.4778 5.06545 17.4821 5.51642Z" fill="#9DA0AF"/>
</svg>
