<svg width="25" height="25" viewBox="0 0 25 25" fill="none" xmlns="http://www.w3.org/2000/svg">
<path fill-rule="evenodd" clip-rule="evenodd" d="M12.6176 5.52679C12.4131 5.03267 11.7132 5.03267 11.5088 5.52679L9.89479 9.42723C9.76359 9.74428 9.46353 9.95915 9.12112 9.98124L4.99589 10.2474C4.46184 10.2818 4.23667 10.9453 4.63942 11.2977L7.90583 14.1558C8.15791 14.3764 8.26664 14.7187 8.18805 15.0443L7.25828 18.8962C7.13457 19.4087 7.68466 19.8201 8.14137 19.5567L11.6134 17.5535C11.8918 17.393 12.2346 17.393 12.5129 17.5535L15.985 19.5567C16.4417 19.8201 16.9918 19.4087 16.8681 18.8962L15.9383 15.0443C15.8597 14.7187 15.9684 14.3764 16.2205 14.1558L19.4869 11.2977C19.8897 10.9453 19.6645 10.2818 19.1304 10.2474L15.0052 9.98124C14.6628 9.95915 14.3628 9.74428 14.2316 9.42723L12.6176 5.52679ZM9.84553 4.83856C10.6634 2.86208 13.463 2.86208 14.2808 4.83856L15.6805 8.22107L19.2463 8.45112C21.3825 8.58894 22.2832 11.2427 20.6722 12.6523L17.8159 15.1516L18.6178 18.4738C19.1127 20.524 16.9123 22.1697 15.0855 21.1158L12.0632 19.3722L9.04087 21.1158C7.21404 22.1697 5.01367 20.524 5.50854 18.4738L6.31044 15.1516L3.45411 12.6523C1.84311 11.2427 2.7438 8.58894 4.88001 8.45112L8.44587 8.22107L9.84553 4.83856Z" fill="#9DA0AF"/>
</svg>
